<svg width="22.421143" height="22.461220" viewBox="0 0 22.4211 22.4612" fill="none" xmlns="http://www.w3.org/2000/svg" xmlns:xlink="http://www.w3.org/1999/xlink">
	<desc>
			Created with Pixso.
	</desc>
	<defs>
		<clipPath id="clip22_237">
			<rect width="16.974756" height="16.994947" transform="translate(0.000000 6.944191) rotate(-24.147625)" fill="white" fill-opacity="0"/>
		</clipPath>
	</defs>
	<rect width="16.974756" height="16.994947" transform="translate(0.000000 6.944191) rotate(-24.147625)" fill="#FFFFFF" fill-opacity="0"/>
	<g clip-path="url(#clip22_237)">
		<path d="M9.68347 5.52729C10.3776 5.05898 10.9355 4.63968 11.5332 4.28847C12.5522 3.68929 13.6207 3.56074 14.7582 4.00679C16.8182 4.82877 17.933 6.34306 18.2134 8.51604C18.3676 9.71312 17.8666 10.7219 17.2151 11.649C16.5337 12.6258 15.7631 13.538 15.0527 14.4982C14.072 15.8133 13.3948 17.2556 13.2175 18.9141C13.1823 19.2401 12.9796 19.5484 12.879 19.8003C12.4183 19.9692 12.104 19.9557 11.856 19.6104C11.7109 19.4149 11.5315 19.2443 11.3793 19.0534C10.7131 18.2255 9.88794 17.5844 9.01587 16.9912C7.71204 16.1068 6.36316 15.2896 5.1333 14.3009C4.11157 13.4852 3.28406 12.4517 2.71094 11.2755C2.06543 9.94156 1.9624 8.52284 2.55164 7.09053C3.22668 5.4452 5.55786 3.76899 7.94885 4.47078C8.43787 4.61412 8.87061 4.95583 9.31873 5.22086C9.44971 5.31122 9.57178 5.41382 9.68347 5.52729ZM11.8643 17.5228C11.9309 17.4399 11.986 17.3484 12.0281 17.2506C12.4861 15.5576 13.3857 14.115 14.4913 12.7735C15.158 11.9644 15.7855 11.1191 16.3695 10.245C17.2837 8.89523 17.0365 7.67275 16.1283 6.44986C15.8417 6.09573 15.5032 5.7871 15.1243 5.53445C14.3933 5.00822 13.587 4.91049 12.7286 5.20936C11.8486 5.51662 11.0948 5.98346 10.5265 6.74848C10.2087 7.17426 9.7406 7.18542 9.34363 6.83974C9.23816 6.74737 9.14319 6.64357 9.06055 6.53025C8.54663 5.83285 7.81934 5.66884 7.01379 5.69293C6.30872 5.71468 5.62366 5.93298 5.03564 6.32333C4.74084 6.50951 4.49109 6.75907 4.30457 7.05392C3.6311 8.20173 3.46484 9.42564 3.95789 10.6856C4.38879 11.8076 5.13647 12.7797 6.10974 13.4831C6.7915 13.9831 7.48157 14.4539 8.18298 14.9168C9.35315 15.688 10.5474 16.4201 11.5771 17.3843C11.666 17.4436 11.7626 17.4902 11.8643 17.5228Z" fill="#FF0F82" fill-opacity="1.000000" fill-rule="nonzero"/>
		<path d="M11.8643 17.5228C11.7634 17.4891 11.6678 17.4416 11.5801 17.3817C10.5502 16.4175 9.35596 15.6853 8.18579 14.9142C7.48157 14.4539 6.79224 13.976 6.10974 13.4832C5.13623 12.7811 4.3877 11.8103 3.95557 10.6893C3.46399 9.43274 3.62878 8.20547 4.30212 7.05766C4.48877 6.76281 4.73853 6.51325 5.03333 6.32706C5.62158 5.93499 6.3075 5.71535 7.01379 5.69294C7.81934 5.66884 8.54993 5.83134 9.06055 6.53025C9.14319 6.64358 9.23816 6.74738 9.34363 6.83975C9.7406 7.18542 10.2087 7.17426 10.5265 6.74848C11.0948 5.98347 11.8519 5.51512 12.7286 5.20936C13.587 4.91049 14.3933 5.00822 15.1243 5.53446C15.5032 5.7871 15.8417 6.09573 16.1283 6.44987C17.0365 7.67276 17.2803 8.88741 16.3695 10.245C15.7841 11.1157 15.1578 11.9644 14.4913 12.7735C13.3857 14.115 12.4841 15.5531 12.0281 17.2506C11.986 17.3484 11.9309 17.4399 11.8643 17.5228Z" fill="#FF0F82" fill-opacity="1.000000" fill-rule="nonzero"/>
	</g>
</svg>
